<svg preserveAspectRatio="none" width="100%" height="100%" overflow="visible" style="display: block;" viewBox="0 0 34.5361 26" fill="none" xmlns="http://www.w3.org/2000/svg">
<g id="Frame 1000011506">
<path id="Union" d="M24.6943 0C30.1301 0 34.5385 4.38091 34.5361 9.78613V10.8281C34.5361 16.2309 30.1282 20.6121 24.6924 20.6123H21.0293L15.6084 26L15.5498 21.3955L19.6562 17.3145H24.6943C28.2987 17.3145 31.2226 14.4086 31.2227 10.8262V9.78418C31.2227 6.2017 28.2987 3.2959 24.6943 3.2959H20.5107V0H24.6943ZM19.499 0L16.1826 3.2959H9.84375C6.2394 3.29596 3.31641 6.20174 3.31641 9.78418V10.8262C3.31649 14.4085 6.23945 17.3144 9.84375 17.3145H15.3916V20.6104H9.84375C4.40792 20.6103 8.05923e-05 16.2289 0 10.8262V9.78418C0 4.38135 4.40787 6.08585e-05 9.84375 0H19.499ZM17.6348 8.25781C18.7926 8.25799 19.7361 9.19591 19.7363 10.3467V10.4863C19.7363 11.6373 18.7927 12.575 17.6348 12.5752H17.4941C16.336 12.5752 15.3926 11.6374 15.3926 10.4863V10.3467C15.3928 9.19581 16.3362 8.25781 17.4941 8.25781H17.6348ZM10.9277 8.63867C11.8773 8.63867 12.6475 9.40389 12.6475 10.3477V10.4873C12.6473 11.4309 11.8772 12.1953 10.9277 12.1953H10.7881C9.83866 12.1953 9.06855 11.4309 9.06836 10.4873V10.3477C9.06836 9.40389 9.83854 8.63867 10.7881 8.63867H10.9277ZM24.3379 8.63867C25.2874 8.63867 26.0576 9.40389 26.0576 10.3477V10.4873C26.0574 11.4309 25.2873 12.1953 24.3379 12.1953H24.1982C23.2488 12.1953 22.4787 11.4309 22.4785 10.4873V10.3477C22.4785 9.40389 23.2487 8.63867 24.1982 8.63867H24.3379ZM17.4941 9.01562C16.7569 9.01563 16.1572 9.61201 16.1572 10.3447V10.4844C16.1574 11.2169 16.7571 11.8125 17.4941 11.8125H17.6348C18.3717 11.8123 18.9705 11.2168 18.9707 10.4844V10.3447C18.9707 9.61211 18.3718 9.0158 17.6348 9.01562H17.4941Z" fill="var(--fill-0, #365EEF)"/>
</g>
</svg>
